<svg height="381.142" viewBox="0 0 375.271 381.142" width="375.271" xmlns="http://www.w3.org/2000/svg"><g fill="#fff"><path d="m41.5 0 41.5 22h-83z" transform="matrix(.848 .53 -.53 .848 90.905 318.502)"/><path d="m20.5 0 20.5 11h-41z" transform="matrix(.848 .53 -.53 .848 166.964 280.972)"/><path d="m14.5 0 14.5 13h-29z" transform="matrix(.848 .53 -.53 .848 105.236 349.262)"/><path d="m14.5 0 14.5 13h-29z" transform="matrix(.848 .53 -.53 .848 6.889 28.089)"/><path d="m34 0 34 22h-68z" transform="matrix(.848 .53 -.53 .848 190.171 309.174)"/><path d="m70 0 70 45h-140z" transform="matrix(.848 .53 -.53 .848 256.543 219.28)"/><path d="m16.5 0 16.5 11h-33z" transform="matrix(.848 .53 -.53 .848 203.335 0)"/><path d="m16.5 0 16.5 11h-33z" transform="matrix(.848 .53 -.53 .848 204.543 286.713)"/><path d="m25.5 0 25.5 17h-51z" transform="matrix(.848 .53 -.53 .848 222.441 27)"/><path d="m22.5 0 22.5 15h-45z" transform="matrix(.848 .53 -.53 .848 126.694 5)"/></g></svg>