<svg height="301.968" viewBox="0 0 808.765 301.968" width="808.765" xmlns="http://www.w3.org/2000/svg"><g fill="#fff"><path d="m41.5 0 41.5 22h-83z" transform="matrix(.848 .53 -.53 .848 11.658 239.328)"/><path d="m20.5 0 20.5 11h-41z" transform="matrix(.848 .53 -.53 .848 429.414 220.465)"/><path d="m14.5 0 14.5 13h-29z" transform="matrix(.848 .53 -.53 .848 257.17 270.087)"/><path d="m14.5 0 14.5 13h-29z" transform="matrix(.848 .53 -.53 .848 154.231 21.087)"/><path d="m34 0 34 22h-68z" transform="matrix(.848 .53 -.53 .848 516.182 230)"/><path d="m70 0 70 45h-140z" transform="matrix(.848 .53 -.53 .848 690.038 84.809)"/><path d="m16.5 0 16.5 11h-33z" transform="matrix(.848 .53 -.53 .848 518.194 0)"/><path d="m16.5 0 16.5 11h-33z" transform="matrix(.848 .53 -.53 .848 682.038 225.674)"/><path d="m25.5 0 25.5 17h-51z" transform="matrix(.848 .53 -.53 .848 587.038 27)"/><path d="m22.5 0 22.5 15h-45z" transform="matrix(.848 .53 -.53 .848 323.306 5)"/></g></svg>