<svg width="150" height="150" viewBox="0 0 150 150" xmlns="http://www.w3.org/2000/svg" xmlns:xlink="http://www.w3.org/1999/xlink"><title>Page 1</title><defs><path id="a" d="M0 0L150 0 150 149.999971 0 149.999971z"/></defs><g fill="none" fill-rule="evenodd"><path fill="#9CD6E5" d="M84.4312427 6L5 84.6663486 67.2938478 149 147 65.1208052z"/><path fill="#59B3C1" d="M5 83.9074138L85.0255898 83.9074138 85.0255898 9 88 9 85.8172446 11.450049 86.9991682 87.1397408 17.0810731 97z"/><mask id="b" fill="#fff"><use xlink:href="#a"/></mask><path d="M107.503 68.122h31.828l-74.334 74.333L10.67 88.128h51.202v27.701a3.126 3.126 0 0 0 6.25 0V88.128h16.88a3.125 3.125 0 0 0 3.126-3.125V10.669l51.203 51.203h-31.828a3.126 3.126 0 0 0 0 6.25zM10.67 81.878L81.877 10.67v71.208H10.67zm139.314-17.193a3.292 3.292 0 0 0-.033-.224c-.005-.026-.007-.053-.012-.079a3.057 3.057 0 0 0-.067-.264l-.008-.031a3.234 3.234 0 0 0-.093-.26l-.01-.028a2.888 2.888 0 0 0-.11-.233l-.02-.043a3.169 3.169 0 0 0-.12-.2c-.013-.02-.025-.043-.039-.064-.039-.059-.083-.114-.125-.17-.02-.025-.037-.051-.057-.076a3.292 3.292 0 0 0-.16-.177l-.045-.048L87.213.915c-.043-.042-.089-.08-.133-.12-.031-.027-.06-.057-.093-.083-.05-.041-.102-.077-.153-.115-.031-.023-.06-.047-.093-.068-.052-.035-.106-.066-.16-.097-.034-.02-.068-.042-.103-.061-.051-.028-.103-.05-.156-.075-.04-.02-.08-.04-.122-.057-.049-.02-.098-.037-.149-.054-.047-.017-.093-.035-.14-.05-.049-.014-.097-.025-.145-.037-.051-.013-.102-.027-.153-.037-.053-.01-.106-.017-.16-.025-.047-.007-.095-.016-.143-.02a3.15 3.15 0 0 0-.264-.014L85.002 0c-.023 0-.044.003-.067.003-.08.002-.16.005-.24.013-.056.005-.11.015-.166.024-.045.007-.09.012-.136.02-.06.012-.12.029-.178.044-.04.01-.078.018-.117.03a2.78 2.78 0 0 0-.172.06c-.04.014-.078.027-.117.043-.054.022-.107.048-.16.074-.039.019-.078.036-.117.056-.052.028-.102.06-.153.09l-.11.067c-.058.04-.114.083-.17.125-.024.02-.05.037-.075.057a3.045 3.045 0 0 0-.237.214L.916 82.793l-.008.009c-.07.07-.135.142-.198.217-.017.021-.032.045-.05.066-.045.06-.09.118-.132.18-.013.019-.023.039-.036.058a3.44 3.44 0 0 0-.122.205l-.02.041a2.93 2.93 0 0 0-.11.236 3.289 3.289 0 0 0-.103.287l-.009.03a3.07 3.07 0 0 0-.066.266c-.005.024-.008.05-.012.074a2.913 2.913 0 0 0 0 1.082l.011.074c.018.09.041.178.067.265l.008.03c.027.09.059.175.093.26l.01.028c.033.08.07.158.11.234.008.014.013.029.02.043.037.07.079.135.121.201l.037.062c.04.06.084.115.127.171.019.025.036.051.056.075.051.062.105.12.161.177.015.016.028.033.044.049l56.537 56.537h.005l5.352 5.352c.042.042.087.079.13.118.03.027.06.056.092.082.048.04.1.075.15.112.03.022.06.046.091.067.051.034.104.064.156.095.034.02.067.041.102.06.05.027.101.05.153.074.04.018.079.038.12.056.047.019.096.035.145.053.046.016.092.034.139.048.047.014.094.025.141.037.05.012.1.027.15.036.052.01.104.017.157.024.047.008.093.016.141.02.086.01.172.012.258.014l.044.002c.022 0 .043-.003.065-.004.079-.001.157-.004.235-.012.056-.005.11-.015.164-.023.044-.007.088-.012.133-.02.059-.012.117-.028.175-.043.038-.01.077-.018.114-.03.058-.017.113-.038.17-.058l.114-.042c.053-.022.105-.048.156-.073.039-.018.078-.035.116-.055.05-.028.1-.059.15-.09.036-.021.072-.041.107-.064.058-.039.112-.081.167-.123.024-.019.05-.036.074-.056a3.04 3.04 0 0 0 .232-.21l5.347-5.347h.045l76.543-76.543.008-.008c.07-.07.135-.142.197-.218.018-.022.033-.045.05-.067.046-.059.091-.117.132-.178.014-.02.025-.04.037-.06.043-.067.084-.134.122-.203.007-.014.012-.028.02-.041.039-.077.077-.155.11-.236l.01-.028c.035-.085.067-.171.094-.26l.008-.03c.025-.088.048-.175.066-.265.006-.026.007-.052.012-.079.013-.074.026-.148.034-.224a3.152 3.152 0 0 0 0-.625z" fill="#3A230D" mask="url(#b)"/><path d="M97.503 61.872h-1.875a3.126 3.126 0 0 0 0 6.25h1.875a3.125 3.125 0 0 0 0-6.25m-32.506 60.832a3.126 3.126 0 0 0-3.125 3.125v1.876a3.126 3.126 0 0 0 6.25 0v-1.876a3.125 3.125 0 0 0-3.125-3.125" fill="#3A230D"/></g></svg>