<svg width="120" height="120" viewBox="0 0 120 120" xmlns="http://www.w3.org/2000/svg"><g transform="matrix(1 0 0 -1 0 119)" fill="#91C32F" fill-rule="evenodd"><path d="M46.36.557c.432.045.591.093.44.143C45.4 1 45 2.2 45 5.9c0 4.2-.3 4.9-3.1 6.5-4.6 2.7-5.9 6.9-5.9 18.8 0 12.4 1.4 15.3 8.7 18.9 4.1 2.1 6.2 2.4 15.3 2.4 9.1 0 11.2-.3 15.4-2.4 7.3-3.6 8.6-6.5 8.6-18.9 0-11.9-1.3-16.1-5.9-18.8-2.8-1.6-3.1-2.3-3.1-6.5 0-3.7-.4-4.9-1.7-5.2-.163-.049-.032-.095.359-.138C100.215 6.744 120 30.562 120 59c0 33.137-26.863 61-60 61S0 92.137 0 59C0 30.555 19.794 6.733 46.36.557zM47.9 96.4c2.8-2.3 3.1-3.1 3.1-8.4 0-7.2-2.5-10.8-8.2-11.7C34.9 75.1 30 79.8 30 88.5c0 3.8.5 5.2 2.9 7.6 4 4 10.5 4.1 15 .3zm39.2-.3c2.4-2.4 2.9-3.8 2.9-7.6 0-8.7-4.9-13.4-12.8-12.2-5.7.9-8.2 4.5-8.2 11.7 0 5.3.3 6.1 3.1 8.4 4.5 3.8 11 3.7 15-.3zM66.9 77.4c3.7-3 4.8-8 3.2-13.5-2.8-9.3-17.4-9.3-20.2 0C47.4 72.4 52.1 80 60 80c2.7 0 4.8-.8 6.9-2.6zm-30.2-5.9C40 69.3 41.6 63 40.1 58c-2-6.9-9.8-9.8-15.9-6-3.6 2.2-5.2 5.4-5.2 10.3.1 9.3 9.8 14.4 17.7 9.2zm60.3-.4c3.2-2.3 4.7-7.9 3.4-12.8-2.6-10.5-17.4-10.6-20.5-.2-3.4 11.4 7.8 19.9 17.1 13zM19.932 46.5c-2.556-.9-5.993-3-7.668-4.6-2.997-3-3.085-3.4-3.085-10.3-.088-6.5 3.526-7.6 3.526-2.6 0 3.8.264 7.6.528 8.5.794 2.3 4.936 4.5 11.283 5.9 3.702.9 5.465 1.8 5.641 2.9.353 2.2-3.966 2.3-10.225.2zm80.49 0c2.556-.9 5.994-3 7.669-4.6 2.996-3 3.085-3.4 3.085-10.3.088-6.5-3.526-7.6-3.526-2.6 0 3.8-.265 7.6-.529 8.5-.793 2.3-4.936 4.5-11.282 5.9-3.703.9-5.465 1.8-5.642 2.9-.352 2.2 3.967 2.3 10.225.2zM23.2 20.4c.4-11-4.2-6.1-4.2 1 0 6.8.2 7.6 1.9 7.6 1.8 0 2-.9 2.3-8.6zm73.825 0c-.4-11 4.2-6.1 4.2 1 0 6.8-.2 7.6-1.9 7.6-1.8 0-2-.9-2.3-8.6z"/><path d="M35.7 93.2c-1-1-1.7-3.5-1.7-5.5 0-6.5 5.7-9.7 10.8-6.1 2.7 1.9 3.1 9.3.6 11.8-2.1 2.2-7.7 2-9.7-.2zm38.9.2c-2.5-2.5-2.1-9.9.6-11.8 5.2-3.7 10.8-.4 10.8 6.2 0 2.5-.7 4.5-1.8 5.5-2.3 2.1-7.6 2.2-9.6.1zM26.8 68.6c-5.1-2.5-4.8-10.9.5-13.4 2.2-1.1 3.2-1.1 5.5 0s2.7 2 3 6.1c.2 2.7-.2 5.4-.8 6.2-1.5 1.8-5.6 2.4-8.2 1.1zm61.7.6C85 68.5 84 66.9 84 62c0-5.5 1.6-7.3 6.2-7.3 5.7 0 8.8 7 5.3 12-1.6 2.3-3.9 3.1-7 2.5zM19 15.6c0-.2.8-1 1.8-1.7 1.5-1.3 1.6-1.2.3.4S19 16.4 19 15.6zm79.9-1.3c-1.3-1.6-1.2-1.7.4-.4 1.6 1.3 2.1 2.1 1.3 2.1-.2 0-1-.8-1.7-1.7zM51 42.7c-1.8-.9-2.6-2.2-2.8-4.5-.3-2.8.5-4.1 5.7-9.5l6.1-6.2 6.1 6.2c5.2 5.4 6 6.7 5.7 9.5-.4 4.6-4.5 6.6-8.8 4.4-2.6-1.3-3.4-1.3-5.8 0-3.3 1.7-3.1 1.7-6.2.1z" fill-rule="nonzero"/></g></svg>