<svg width="120" height="120" viewBox="0 0 120 120" xmlns="http://www.w3.org/2000/svg"><g transform="matrix(1 0 0 -1 0 119)" fill="none" fill-rule="evenodd"><path d="M59.5 120C26.64 120 0 92.36 0 59.5S26.64 0 59.5 0 120 26.64 120 59.5 92.36 120 59.5 120zm38.3-21.8c.9-.7 1.2-5 1-18.3l-.3-17.4-4.2-.3-4.3-.3v-5.3c0-2.8-.5-5.7-1.2-6.4-.7-.7-3.3-1.2-6-1.2h-4.7l-.3-7.2-.3-7.3h-58v44l7.8.3 7.7.3V83c0 6.6.4 7 8.1 7H50v3.9c0 2.2.5 4.2 1.3 4.4 2.1.9 45.1.7 46.5-.1z" fill="#91C32F" fill-rule="nonzero"/><path d="M58.7 92.8C61.4 90 61.5 90 74.5 90s13.1 0 15.8 2.8l2.6 2.7H56.1l2.6-2.7zM53 91.5c0-.8.7-1.5 1.6-1.5 1.4 0 1.4.3.4 1.5-.7.8-1.4 1.5-1.6 1.5-.2 0-.4-.7-.4-1.5zm39.8-1c-2.6-2.3-2.8-2.9-2.8-10.9 0-8.3.1-8.5 3-10.6l3-2.1v13c0 7.2-.1 13.1-.2 13.1-.2 0-1.5-1.2-3-2.5z" fill="#91C32F" fill-rule="nonzero"/><path fill="#91C32F" fill-rule="nonzero" d="M45.7 83L49.9 79 62.5 79 75.1 79 79.3 83 83.5 86.9 62.5 86.9 41.5 86.9z"/><path d="M39 81.5c0-2 .5-2.5 2.7-2.5h2.6L42 81.5c-1.3 1.4-2.5 2.5-2.7 2.5-.2 0-.3-1.1-.3-2.5zm42.7-1.3c-3.6-3.6-3.7-4.1-3.7-10.8 0-6.8.1-7.1 4-10.9l4-3.9v14.7c0 8.1-.1 14.7-.3 14.7-.2 0-2-1.7-4-3.8zm-46-14c5.4-4.8 10.5-9.3 11.4-10 1.4-1.1 3.2.2 12.8 8.8l11.2 10H26l9.7-8.8zM22 56.5V39.8l3.8 3c2 1.7 6.1 5.5 9 8.5l5.4 5.4-4.9 4.5c-2.6 2.5-6.7 6.2-9 8.3L22 73.2V56.5zm48.5 12.8c-2.2-2-6.2-5.7-8.9-8.2l-4.9-4.5 8.9-8.5 8.9-8.5.3 8.7c.1 4.9.1 12.3 0 16.7l-.3 7.9-4-3.6zM90 66c0-.5.5-1 1.1-1 .5 0 .7.5.4 1-.3.6-.8 1-1.1 1-.2 0-.4-.4-.4-1zM78 54.5c0-.9.9-1.5 2.1-1.5 1.8 0 1.9.2.9 1.5-.7.8-1.6 1.5-2.1 1.5s-.9-.7-.9-1.5zM35 46l-8.5-7.9h44L62 46c-8.5 7.9-8.5 7.9-10.6 5.9-1.1-1-2.4-1.9-2.9-1.9s-1.8.9-2.9 1.9c-2.1 2-2.1 2-10.6-5.9zm43-25c0-.5.5-1 1-1 .6 0 1 .5 1 1 0 .6-.4 1-1 1-.5 0-1-.4-1-1z" fill="#91C32F" fill-rule="nonzero"/><text transform="matrix(1 0 0 -1 0 40)" font-family="HiraginoSans-W7, Hiragino Sans" font-size="14" font-weight="bold" fill="#FFF"><tspan x="33" y="25">最大５件</tspan></text></g></svg>