<svg width="120" height="120" viewBox="0 0 120 120" xmlns="http://www.w3.org/2000/svg"><g transform="matrix(1 0 0 -1 0 120)" fill="#91C32F"><path d="M60.42 120.005C27.052 120.005 0 93.14 0 60.002 0 26.864 27.051 0 60.42 0c33.37 0 60.422 26.864 60.422 60.002 0 33.139-27.052 60.003-60.421 60.003zm43.745-20.114c1.501-1.5 1.702-30.496.2-32.795-.7-1.2-3.804-1.6-15.016-1.8l-14.015-.4-4.204-4.9c-5.806-6.899-7.809-6.299-7.809 2.1 0 3.3-.3 3.7-1.902 3.3-1.1-.3-2.803.4-4.004 1.6-1.902 1.9-2.102 3.2-2.102 15.498 0 7.399.4 14.598 1.001 15.998l1.001 2.6h22.824c16.418 0 23.125-.3 24.026-1.2zM45.402 84.193c2.603-2.6 2.903-3.6 2.903-9.298 0-4.5-.5-6.9-1.801-8.4-4.205-5.299-11.413-5.899-16.418-1.5-3.103 2.8-3.303 3.3-3.303 9.6 0 6.299.2 6.799 3.303 9.598 4.605 4.1 11.112 4.1 15.316 0zm3.404-26.896c5.506-2.8 7.908-5.6 7.308-8.7l-.5-2.499h9.71c5.305 0 9.91-.3 10.31-.6.3-.4-1.401-4.6-3.904-9.498l-4.404-8.9h20.421c22.624 0 24.026-.4 18.32-5.599-1.902-1.7-2.403-2-1.302-.7l1.902 2.3H13.97l1.902-2.2c1.101-1.4.6-1.1-1.301.6-3.504 3.1-3.404 5.6.3 5.6 2.403 0 2.403 0 2.403 11.798 0 11.599 0 11.899 2.803 14.398 2.903 2.7 6.106 4.6 10.11 5.9 4.205 1.4 14.315.4 18.62-1.9z"/><path d="M32.6 81.7c-1.1-.8-2-3.1-2.3-5.8-.6-5.6 2.3-9.9 6.8-9.9s6.9 3.1 6.9 8.9c0 4-.4 5.3-2.2 6.5-2.7 1.9-6.8 2.1-9.2.3zM30.8 55c-1.5-.4-4.3-1.8-6.2-3l-3.5-2.1-.3-11.4-.3-11.5h42.1l3.7 7.5L70 42H47.2L45 36.4c-1.3-3-2.9-6.2-3.7-7-1.9-1.9-12.6-1.9-14.2 0-1.7 2.1.7 3.4 6.8 3.8l5.3.3 2.6 6.3 2.6 6.2h4.2c4.1 0 4.2.1 3.5 2.8-1.3 4.9-13.6 8.5-21.3 6.2z"/></g></svg>