<svg width="155" height="97" viewBox="0 0 155 97" xmlns="http://www.w3.org/2000/svg" xmlns:xlink="http://www.w3.org/1999/xlink"><title>Page 1</title><defs><path id="a" d="M0 0.002728125L38.7489726 0.002728125 38.7489726 64.6671719 0 64.6671719z"/></defs><g fill="none" fill-rule="evenodd"><path fill="#72CFDB" d="M113 16.6506247L134.718545 11 152 11 152 68 132.394341 66.9646539z"/><path fill="#4DB4BC" d="M149.624956 13L136 66 153 66z"/><path fill="#72CFDB" d="M4.52777778 3L36 9.2893401 22.7517222 60.5025381 3 62z"/><path fill="#4DB4BC" d="M32.1618891 9L6 62 22.463013 62 34 16.1968845z"/><path fill="#F7D7BF" d="M34.017341 16.224605L64.4788208 16.224605 77.3020809 9 106.757225 19.4653478 116.018335 23.2790764 129 61.5591536 118.780347 68.0731468 116.018335 78.8763314 99.0443931 86.3069197 86.1688324 92.8464329 72.8778728 94 25 55.108353z"/><path fill="#E0B190" d="M80 30L124.629271 44.8089054 132 60.9378479 120.38676 68z"/><path fill="#E0B190" d="M114.199719 63L76.5083122 84.5070341 41 68.5084891 73.6229162 94 87.2071958 92.8658027 93.5039458 91.6760455 100.367207 86.4360956 106.800669 85.7018693 111.029839 78.5 118.902312 76.4768452 121 71.5816053z"/><path d="M122.386 66.51c-3.042-6.35-13.925-15.164-24.439-23.68-5.864-4.747-11.405-9.235-14.938-12.772a3.225 3.225 0 0 0-3.377-.757c-2.177.789-3.52 1.397-4.58 1.869-1.614.724-2.156.97-4.333 1.19a3.227 3.227 0 0 0-2.364 1.416c-4.566 6.835-9.293 6.253-12.451 5.193-1.008-.337-1.189-.77-1.286-1.184-.678-2.839 2.726-9.448 7.137-13.864 10.495-10.515 15.907-13.147 27.338-8.032 12.968 5.807 25.962 10.353 26.092 10.398a3.224 3.224 0 0 0 4.114-1.992 3.24 3.24 0 0 0-1.99-4.119c-.129-.045-12.865-4.5-25.575-10.198-14.809-6.628-22.933-2.263-34.539 9.364-4.417 4.423-10.417 13.373-8.867 19.937.665 2.794 2.628 4.863 5.547 5.826 7.318 2.419 13.995.104 18.968-6.505 2.054-.317 3.171-.782 4.85-1.539a63.515 63.515 0 0 1 2.261-.97c3.694 3.473 8.68 7.514 13.93 11.763 9.494 7.689 20.26 16.406 22.682 21.45 1.195 2.49-.09 4.113-.962 4.856-1.279 1.1-3.029 1.449-3.978.783a3.23 3.23 0 0 0-5.044 3.007c.22 2.056-1.66 3.233-2.474 3.64-2.067 1.048-4.224.867-5.03.117a3.256 3.256 0 0 0-3.353-.66 3.231 3.231 0 0 0-2.067 2.723c-.193 2.12-1.763 4.157-3.81 4.953-.988.375-2.422.601-3.707-.576a3.264 3.264 0 0 0-2.951-.75 3.226 3.226 0 0 0-2.267 2.037c-.123.323-.4 1.1-3.423 1.1-2.15 0-6.02-1.456-7.912-2.71-2.267-1.494-16.481-12.112-28.759-22.407-1.724-1.455-4.708-4.572-7.343-7.327-2.338-2.444-4.475-4.662-5.573-5.594a3.211 3.211 0 0 0-4.553.382 3.24 3.24 0 0 0 .38 4.559c1.002.847 2.94 2.897 5.077 5.128 2.88 3.013 5.858 6.13 7.86 7.812 12.025 10.081 26.48 20.965 29.36 22.86C68.412 94.8 73.533 97 77.5 97c3.184 0 5.632-.73 7.33-2.16 2.273.886 4.857.893 7.343-.077 2.939-1.139 5.354-3.434 6.723-6.215 2.545.543 5.458.162 8.105-1.17 2.59-1.306 4.463-3.304 5.393-5.64 2.57.137 5.218-.775 7.408-2.657 3.707-3.175 4.727-8.115 2.584-12.57" fill="#3A230D"/><path d="M64.583 12.934H35.521a3.233 3.233 0 0 0-3.23 3.233 3.233 3.233 0 0 0 3.23 3.234h29.062a3.233 3.233 0 0 0 3.23-3.234 3.233 3.233 0 0 0-3.23-3.233m67.264 46.696c-1.001-1.481-3.003-1.889-4.482-.88l-9.442 6.35a3.238 3.238 0 0 0-.878 4.488 3.243 3.243 0 0 0 2.686 1.43c.614 0 1.24-.175 1.796-.55l9.442-6.35a3.239 3.239 0 0 0 .878-4.488M111.8 75.06c-2.312-1.824-12.652-12.423-19.046-19.097a3.218 3.218 0 0 0-4.566-.097 3.233 3.233 0 0 0-.097 4.572c1.66 1.733 16.301 17.014 19.705 19.704a3.213 3.213 0 0 0 1.995.692c.95 0 1.9-.426 2.545-1.235a3.234 3.234 0 0 0-.536-4.54m-12.904 6.486c-3.868-3.097-13.588-13.438-15.784-15.83a3.232 3.232 0 0 0-4.566-.194 3.242 3.242 0 0 0-.194 4.572c.116.123 11.716 12.662 16.508 16.503a3.243 3.243 0 0 0 2.015.705c.943 0 1.885-.42 2.525-1.21a3.243 3.243 0 0 0-.504-4.546m-12.852 6.512c-4.605-3.886-14.027-13.929-15.868-15.901A3.225 3.225 0 0 0 65.61 72a3.24 3.24 0 0 0-.155 4.572c2.648 2.84 11.664 12.41 16.424 16.432.607.511 1.343.763 2.08.763a3.24 3.24 0 0 0 2.473-1.15 3.24 3.24 0 0 0-.388-4.56" fill="#3A230D"/><mask id="b" fill="#fff"><use xlink:href="#a"/></mask><path d="M20.247 58.2H6.458V6.7c10.379.821 21.578 2.606 25.646 4.585C30.393 25.447 22.65 50.609 20.247 58.2M37.742 7.353C32.209 2.103 10.075.401 3.423.007 2.506-.038 1.66.266 1.014.88A3.234 3.234 0 0 0 0 3.234v58.2a3.233 3.233 0 0 0 3.23 3.233h19.374a3.226 3.226 0 0 0 3.068-2.23c.471-1.45 11.6-35.645 13.065-52.458a3.219 3.219 0 0 0-.995-2.626" fill="#3A230D" mask="url(#b)"/><path d="M148.542 64.667h-13.73c-3.062-9.984-12.104-36.02-17.148-46.78 4.928-1.674 15.513-4.552 30.878-4.914v51.694zm3.229-58.2c-25.356 0-39.422 6.5-40.01 6.77a3.216 3.216 0 0 0-1.724 2.012 3.264 3.264 0 0 0 .355 2.625c3.991 6.435 16.488 42.17 18.89 50.887a3.23 3.23 0 0 0 3.114 2.373h19.375A3.233 3.233 0 0 0 155 67.9V9.7a3.228 3.228 0 0 0-3.23-3.233z" fill="#3A230D"/></g></svg>