<svg width="102" height="140" viewBox="0 0 102 140" xmlns="http://www.w3.org/2000/svg"><title>list</title><g transform="translate(1 1)" fill="none" fill-rule="evenodd"><path fill="#FEFFE7" d="M3 1L97 1 97 112.647389 77.0281304 135 3 135z"/><path d="M97.25 0H2.75A2.75 2.75 0 0 0 0 2.749V135.25A2.75 2.75 0 0 0 2.75 138h71.857c.73 0 1.429-.29 1.944-.805l22.644-22.64a2.749 2.749 0 0 0 .805-1.944V2.749A2.75 2.75 0 0 0 97.25 0zM77.352 128.62l-.012-13.277 13.278.012-13.266 13.265zm17.15-18.76l-19.912-.017h-.002a2.75 2.75 0 0 0-2.75 2.751l.018 19.908H5.499V5.498H94.5V109.86z" stroke="#3A230D" fill="#3A230D" fill-rule="nonzero"/><path d="M64.272 12H45.728C44.221 12 43 13.12 43 14.5s1.221 2.5 2.728 2.5h18.544C65.779 17 67 15.88 67 14.5S65.779 12 64.272 12zm21.981 9H45.747C44.23 21 43 22.12 43 23.5s1.23 2.5 2.747 2.5h40.506C87.77 26 89 24.88 89 23.5S87.77 21 86.253 21zm0 10H45.747C44.23 31 43 32.12 43 33.5s1.23 2.5 2.747 2.5h40.506C87.77 36 89 34.88 89 33.5S87.77 31 86.253 31zM35.245 11h-21.49A2.755 2.755 0 0 0 11 13.755v21.49A2.755 2.755 0 0 0 13.755 38h21.49A2.755 2.755 0 0 0 38 35.245v-21.49A2.755 2.755 0 0 0 35.245 11zM32.49 32.49H16.51V16.51h15.98v15.98z" fill="#3A230D" fill-rule="nonzero"/><path d="M28.997 24l1.175-1.175a2.826 2.826 0 1 0-3.997-3.997L25 20.003l-1.175-1.175a2.826 2.826 0 1 0-3.997 3.997L21.003 24l-1.175 1.175a2.826 2.826 0 1 0 3.997 3.997L25 27.997l1.175 1.175a2.817 2.817 0 0 0 1.999.828 2.826 2.826 0 0 0 1.998-4.825L28.997 24zm35.275 22H45.728C44.221 46 43 47.12 43 48.5s1.221 2.5 2.728 2.5h18.544C65.779 51 67 49.88 67 48.5S65.779 46 64.272 46zm21.981 10H45.747C44.23 56 43 57.12 43 58.5s1.23 2.5 2.747 2.5h40.506C87.77 61 89 59.88 89 58.5S87.77 56 86.253 56zm0 10H45.747C44.23 66 43 67.12 43 68.5s1.23 2.5 2.747 2.5h40.506C87.77 71 89 69.88 89 68.5S87.77 66 86.253 66zM35.245 45h-21.49A2.755 2.755 0 0 0 11 47.755v21.49A2.755 2.755 0 0 0 13.755 72h21.49A2.755 2.755 0 0 0 38 69.245v-21.49A2.755 2.755 0 0 0 35.245 45zM32.49 66.49H16.51V50.51h15.98v15.98zM74.448 80h-.896C72.142 80 71 81.12 71 82.5s1.143 2.5 2.552 2.5h.896C75.858 85 77 83.88 77 82.5S75.857 80 74.448 80zm-10.176 0H45.728C44.221 80 43 81.12 43 82.5s1.221 2.5 2.728 2.5h18.544C65.779 85 67 83.88 67 82.5S65.779 80 64.272 80zm21.981 10H45.747C44.23 90 43 91.12 43 92.5s1.23 2.5 2.747 2.5h40.506C87.77 95 89 93.88 89 92.5S87.77 90 86.253 90zm0 10H45.747C44.23 100 43 101.12 43 102.5s1.23 2.5 2.747 2.5h40.506c1.517 0 2.747-1.12 2.747-2.5s-1.23-2.5-2.747-2.5zM35.245 79h-21.49A2.755 2.755 0 0 0 11 81.755v21.49A2.755 2.755 0 0 0 13.755 106h21.49A2.755 2.755 0 0 0 38 103.245v-21.49A2.755 2.755 0 0 0 35.245 79zm-2.755 21.49H16.51V84.51h15.98v15.98z" fill="#3A230D" fill-rule="nonzero"/></g></svg>