<svg width="201" height="201" viewBox="0 0 201 201" xmlns="http://www.w3.org/2000/svg"><title>Page 1 Copy 2</title><g fill="none" fill-rule="evenodd"><path d="M192.306 198h-87.612c-2.582 0-4.694-2.13-4.694-4.732V8.732C100 6.129 102.112 4 104.694 4h87.612C194.888 4 197 6.13 197 8.732v184.536c0 2.603-2.112 4.732-4.694 4.732" fill="#E4EDB0"/><path d="M192.702 151.427l-83.743 26.358c-2.468.777-5.117-.621-5.888-3.107L60.213 36.504c-.771-2.485.617-5.154 3.085-5.931L147.04 4.215c2.468-.777 5.118.621 5.888 3.107l42.858 138.174c.77 2.485-.617 5.155-3.085 5.931" fill="#E4EDB0"/><path fill="#D0D88B" d="M192.324029 8L113 198 197 198 197 8.21658704z"/><path fill="#F7D7BF" d="M56 126.532189L78.4230852 106 85.8974469 122.368498 166.935264 122.368498 171.655913 129.296137 168.902201 141.141631 180.770701 143.11588 186 150.618026 178.12871 158.496464 174.409625 160.88412 174.409625 165.622318 175.1964 171.939914 169.295588 178.830438 162.214614 180.626609 160.189849 198 72.9156608 198 57.9669373 186.727433z"/><path stroke="#000" d="M56 126.532189L78.4230852 106 85.8974469 122.368498 166.935264 122.368498 171.655913 129.296137 168.902201 141.141631 180.770701 143.11588 186 150.618026 178.12871 158.496464 174.409625 160.88412 174.409625 165.622318 175.1964 171.939914 169.295588 178.830438 162.214614 180.626609 160.189849 198 72.9156608 198 57.9669373 186.727433z"/><path fill="#E0B190" d="M164 197L69.6199404 197 62 186 164 186z"/><path d="M50.558 197H9.442C6.449 197 4 194.57 4 191.6v-68.2c0-2.97 2.449-5.4 5.442-5.4h41.116c2.993 0 5.442 2.43 5.442 5.4v68.2c0 2.97-2.449 5.4-5.442 5.4" fill="#F4D121"/><path d="M50.558 197H9.442C6.449 197 4 194.57 4 191.6v-68.2c0-2.97 2.449-5.4 5.442-5.4h41.116c2.993 0 5.442 2.43 5.442 5.4v68.2c0 2.97-2.449 5.4-5.442 5.4z" stroke="#000"/><path fill="#D6B218" d="M55 121L30.3681286 181.99768 4 185.950431 5.2333251 195.578149 46.7807185 198 55 194.196267z"/><path d="M32.828 179.172A4.027 4.027 0 0 0 30 178a4.029 4.029 0 0 0-2.828 1.172A4.031 4.031 0 0 0 26 182c0 1.052.428 2.084 1.172 2.828A4.03 4.03 0 0 0 30 186a4.027 4.027 0 0 0 2.828-1.172A4.029 4.029 0 0 0 34 182a4.029 4.029 0 0 0-1.172-2.828m151.997-107A4.019 4.019 0 0 0 181.998 71a4.026 4.026 0 0 0-2.827 1.172A4.033 4.033 0 0 0 178 75a4.03 4.03 0 0 0 1.171 2.828A4.028 4.028 0 0 0 181.998 79a4.02 4.02 0 0 0 2.827-1.172A4.018 4.018 0 0 0 186 75a4.02 4.02 0 0 0-1.175-2.828" fill="#3A230D"/><path d="M148.787 111.436c-6.031 0-10.937-4.906-10.937-10.936s4.906-10.936 10.937-10.936c6.03 0 10.936 4.906 10.936 10.936s-4.906 10.936-10.936 10.936zm44.361 81.712h-28.015a13.265 13.265 0 0 0 1.189-5.496c0-1.959-.428-3.819-1.189-5.496h1.232c7.36 0 13.348-5.988 13.348-13.347a13.26 13.26 0 0 0-1.417-5.974c5.652-1.552 9.817-6.733 9.817-12.87 0-2.977-.98-5.73-2.635-7.951V92.258a3.926 3.926 0 0 0-7.852 0v44.673a13.351 13.351 0 0 0-2.861-.313h-.129a13.265 13.265 0 0 0 1.189-5.496c0-7.36-5.988-13.347-13.348-13.347h-6.31c6.7-2.873 11.407-9.534 11.407-17.275 0-10.36-8.428-18.788-18.788-18.788s-18.788 8.428-18.788 18.788c0 7.741 4.706 14.402 11.407 17.275h-21.46V43.13c7.013-1.529 12.547-7.062 14.075-14.075h29.531c1.528 7.013 7.062 12.546 14.075 14.075v12.205a3.926 3.926 0 0 0 7.852 0v-15.71a3.926 3.926 0 0 0-3.926-3.926c-5.829 0-10.57-4.742-10.57-10.57a3.926 3.926 0 0 0-3.926-3.926h-36.54a3.926 3.926 0 0 0-3.926 3.926c0 5.828-4.742 10.57-10.57 10.57a3.926 3.926 0 0 0-3.926 3.926v78.15h-7.668V7.855l88.722-.003v185.296zm-40.174 0h-74.41a11.93 11.93 0 0 1-7.842-2.938l-9.48-8.268v-54.297l17.14-17.139 3.108 12.162a3.925 3.925 0 0 0 3.803 2.954l77.185.004a5.502 5.502 0 0 1 5.496 5.496 5.502 5.502 0 0 1-5.496 5.496h-39.55a3.926 3.926 0 0 0 0 7.852h51.838a5.502 5.502 0 0 1 5.496 5.496 5.502 5.502 0 0 1-5.496 5.496h-51.838a3.926 3.926 0 0 0 0 7.852h43.437a5.502 5.502 0 0 1 5.497 5.496 5.502 5.502 0 0 1-5.497 5.496h-43.437a3.926 3.926 0 0 0 0 7.851h30.046a5.502 5.502 0 0 1 5.497 5.497 5.502 5.502 0 0 1-5.497 5.494zm-56.4-137.312v33.126l-7.16-26.513a18.392 18.392 0 0 0 7.16-6.613zm-31.39-24.14l31.39-8.41v14.547l-2.632.705a3.925 3.925 0 0 0-2.776 4.808c1.51 5.63-1.844 11.437-7.474 12.946a3.925 3.925 0 0 0-2.774 4.815l15.303 56.664h-7.88l-4.06-15.885a3.92 3.92 0 0 0-.658-1.377L65.185 31.696zM53.39 189.223a3.93 3.93 0 0 1-3.926 3.925H11.777a3.93 3.93 0 0 1-3.926-3.925v-63.989a3.93 3.93 0 0 1 3.926-3.926h14.918v45.223a3.926 3.926 0 0 0 7.852 0v-45.223h14.918a3.93 3.93 0 0 1 3.925 3.926v63.989zM199.85 1.15A3.928 3.928 0 0 0 197.073 0L100.5.005a3.926 3.926 0 0 0-3.925 3.926v11.226L59.36 25.128a3.925 3.925 0 0 0-2.775 4.808l19.286 71.976-16.684 16.684c-2.124-3.1-5.69-5.14-9.722-5.14H11.777C5.283 113.457 0 118.74 0 125.235v63.988C0 195.716 5.283 201 11.777 201h37.688c5.517 0 10.158-3.815 11.43-8.943l4.668 4.07A19.78 19.78 0 0 0 78.565 201h118.51a3.926 3.926 0 0 0 3.925-3.926V3.926a3.93 3.93 0 0 0-1.15-2.776z" fill="#3A230D"/></g></svg>