<svg width="176" height="176" viewBox="0 0 176 176" xmlns="http://www.w3.org/2000/svg" xmlns:xlink="http://www.w3.org/1999/xlink"><title>Page 1</title><defs><path id="a" d="M0 0.0006875L175.657263 0.0006875 175.657263 176 0 176z"/></defs><g fill="none" fill-rule="evenodd"><path d="M126 73c0-18.225-17.461-33-39-33S48 54.775 48 73s17.461 33 39 33 39-14.775 39-33" fill="#F7D7BF"/><path fill="#45AAAD" d="M41 61L132 61 130.190805 36.3220869 114.825911 11.9605795 93.6716619 5 73.7109095 5 55.5073263 15.1399191 45.3767293 35.3728696 43.7969998 52.1614776z"/><path d="M96 6s18.634 9.104 14.07 35.488L130 49l-.995-20.554-14.524-14.779L96 6z" fill="#2F8989"/><path fill="#45AAAD" d="M11 172L164 172 160.260767 138.198471 147.173281 112.534238 135.643608 99.702294 121.309597 90.9389982 92.5163738 109.717587 72.6985416 104.881386 51.8209579 90 35.8764524 101.267291 22.5296723 117.854884 13.1814188 143.168324z"/><path d="M107.41 102.807S140.552 147.12 84 170h84l-9.984-38.745-17.67-25.18L120.835 93l-13.426 9.807z" fill="#2F8989"/><path fill="#BF8743" d="M39 172L41.4415498 150.991339 59.090664 135 116.223274 135 134.744247 150.991339 136 172z"/><path d="M43.81 115.862c-1.416-1.3-3.536-1.108-4.734.43a62.381 62.381 0 0 0-1.362 1.815c-1.143 1.586-.886 3.877.574 5.118a3.176 3.176 0 0 0 2.069.775c.997 0 1.984-.48 2.646-1.398.379-.525.783-1.064 1.203-1.602 1.197-1.538 1.02-3.838-.396-5.138M87.5 21.937c.6 0 1.195.019 1.77.056.078.005.155.007.232.007 1.829 0 3.368-1.407 3.49-3.24.127-1.912-1.334-3.563-3.264-3.689A34.754 34.754 0 0 0 87.501 15C85.568 15 84 16.553 84 18.468c0 1.916 1.567 3.469 3.5 3.469" fill="#3A230D"/><mask id="b" fill="#fff"><use xlink:href="#a"/></mask><path d="M159.188 168.666H139.06v-18.163c.002-.057.008-.114.008-.17a3.656 3.656 0 0 0-1.334-2.824l-.015-.012c-.058-.048-.114-.099-.175-.142l-18.156-14.552a3.652 3.652 0 0 0-2.286-.803H58.553c-.83 0-1.637.284-2.286.803L37.97 147.47l-.018.016c-.032.026-.062.054-.094.081a3.593 3.593 0 0 0-.584.646l-.065.09a3.79 3.79 0 0 0-.156.257l-.067.131-.072.15a3.85 3.85 0 0 0-.116.297c-.018.054-.037.107-.052.161-.017.057-.031.116-.045.174a3.573 3.573 0 0 0-.079.434l-.012.133c-.005.072-.009.144-.01.217 0 .025-.004.05-.004.076v18.334H16.468v-11c0-25.865 13.704-49.369 35.979-62.106 1.629 2.005 3.594 3.59 6.075 5.278a64.592 64.592 0 0 0-10.207 6.585 3.672 3.672 0 0 0-.614 5.149 3.65 3.65 0 0 0 5.14.613 57.243 57.243 0 0 1 9.258-5.948l3.487-1.792c.151.102.297.198.45.302.073.05.148.097.224.141 7.07 4.09 14.323 6.164 21.556 6.165h.01c7.238 0 14.496-2.074 21.57-6.166.076-.045.15-.091.223-.142 1.67-1.135 3.2-2.109 4.55-2.969 3.949-2.516 6.81-4.472 9.04-7.217 22.275 12.738 35.98 36.24 35.98 62.106v11.001zm-67.7-22v-7.333h24.332l9.15 7.333H91.488zm-40.8 0l9.15-7.333H84.17v7.333H50.688zm81.054 22H43.914V154h40.255v7.335A3.664 3.664 0 0 0 87.83 165c2.02 0 3.66-1.642 3.66-3.666v-7.335h40.253v14.668zm-7-104.029a139.232 139.232 0 0 1-.628 3.157c-.248 1.189-.481 2.311-.702 3.658-3.074 18.703-5.012 19.938-13.17 25.138a184.22 184.22 0 0 0-4.617 3.012c-11.81 6.788-23.783 6.789-35.593 0-1.714-1.162-3.255-2.143-4.617-3.011-8.16-5.201-10.097-6.436-13.17-25.139a82.81 82.81 0 0 0-.701-3.651 141.1 141.1 0 0 1-.63-3.164h73.829zm-79.027-7.333c2.298-3.645 7.625-6.098 11.132-7.382 7.994-2.928 19.287-4.608 30.981-4.608 11.694 0 22.986 1.68 30.98 4.608 3.508 1.284 8.835 3.736 11.132 7.382H45.715zm3.619-20.341C54.782 18.687 69.532 7.334 87.829 7.334c18.296 0 33.047 11.353 38.494 29.63.64 2.145.914 5.067.818 8.678-2.17-1.162-4.591-2.187-7.208-3.078a23.907 23.907 0 0 0-.972-4.617c-3.097-9.414-9.297-16.656-17.455-20.391a3.657 3.657 0 0 0-4.85 1.81 3.67 3.67 0 0 0 1.807 4.86c6.284 2.877 11.094 8.565 13.546 16.013l.05.162c-7.475-1.633-15.865-2.42-24.231-2.42-14.745 0-29.565 2.442-39.312 7.66-.095-3.62.179-6.536.818-8.678zm122.663 131.704h-5.489v-11c0-14.783-4.108-29.194-11.882-41.676a79.038 79.038 0 0 0-27.864-26.832c1.46-3.843 2.64-9.018 3.871-16.517.196-1.193.404-2.192.645-3.35.256-1.23.556-2.667.9-4.654h2.54c2.021 0 3.66-1.642 3.66-3.667 0-3.95-1.573-7.36-4.32-10.25.008-.085.019-.169.027-.249.216-1.896.282-2.493.298-2.8.283-5.31-.06-9.5-1.047-12.808-3.174-10.647-9.196-19.53-17.416-25.69-8.007-6-17.72-9.173-28.091-9.173-10.37 0-20.085 3.172-28.093 9.174-8.22 6.16-14.242 15.043-17.415 25.689-.97 3.25-1.318 7.342-1.064 12.504.018.361.106 1.268.291 3.111l.027.268c-2.734 2.885-4.298 6.285-4.298 10.224a3.664 3.664 0 0 0 3.66 3.667h2.54c.34 1.959.633 3.37.902 4.66.24 1.156.449 2.154.644 3.346 1.232 7.499 2.41 12.672 3.871 16.515a79.028 79.028 0 0 0-27.864 26.833C13.258 128.474 9.15 142.885 9.15 157.666v11h-5.49A3.663 3.663 0 0 0 0 172.334 3.664 3.664 0 0 0 3.66 176H171.998a3.664 3.664 0 0 0 3.66-3.667 3.663 3.663 0 0 0-3.66-3.666z" fill="#3A230D" mask="url(#b)"/><path d="M71.5 80c-2.475 0-4.5-1.965-4.5-4.366v-5.268C67 67.965 69.025 66 71.5 66s4.5 1.965 4.5 4.366v5.268C76 78.035 73.975 80 71.5 80m34 0c-2.475 0-4.5-1.965-4.5-4.366v-5.268c0-2.401 2.025-4.366 4.5-4.366s4.5 1.965 4.5 4.366v5.268c0 2.401-2.025 4.366-4.5 4.366M99 89.165C99 94.597 94.523 99 89 99s-10-4.403-10-9.835c0-5.432 4.477 1.07 10 1.07s10-6.502 10-1.07" fill="#3A230D"/></g></svg>