<svg width="193" height="193" viewBox="0 0 193 193" xmlns="http://www.w3.org/2000/svg"><title>Page 1</title><g fill="none" fill-rule="evenodd"><path d="M16 169s4.642-54.05 42.48-66c0 0 40.714 35.071 78.51 0l14.75 4.858 18.057 23.116L183 168.42 16 169z" fill="#EA931F"/><path d="M125.459 111.788S155.839 151.498 104 172h77l-9.152-34.72-16.198-22.563L137.766 103l-12.307 8.788z" fill="#E5711A"/><path fill="#ADADAD" d="M37 148L155 148 143.794116 190 50.4063694 190z"/><path d="M51.418 54.053c-.113.922-.295 1.723-.595 2.285-2.106 3.954-7.1.165-10.51 2.132-1.383.799-1.8 2.568-2.049 4.143a105.977 105.977 0 0 0-1.23 12.765c-.077 2.19-.08 4.427.591 6.514.672 2.086 2.127 4.029 4.193 4.77 1.24.446 2.593.432 3.912.412l10.938-.161c4.172-.062 2.42 3.762 2.88 6.665.127.795.585 5.353 1.309 5.83L89.1 118h14.142l23.294-8.608c2.323-2.991 5.396-5.993 7.22-9.298 1.017-1.845.481-3.211.935-5.164.824-3.552 3.715-5.407 7.343-5.896 3.517-.474 7.261.011 10.478-1.483 3.522-1.635 5.677-5.416 6.273-9.247.596-3.831-.145-7.739-1.081-11.501-.568-2.28-1.208-4.54-1.92-6.779-.238-.749-.492-1.509-.955-2.144-.981-1.346-2.708-1.893-4.332-2.273-1.625-.38-3.355-.718-4.594-1.832-2.282-2.051-2.566-13.361-3.209-16.72l-2.364-12.363-18.44-14.806L97.82 3 81.168 6.099l-16.064 9.296-11.04 13.773-2.302 16.752c-.266 1.94-.026 5.525-.344 8.133" fill="#F7D7BF"/><path d="M90.697 47.23a41.213 41.213 0 0 0 5.14 12.403c.313.504.672 1.03 1.222 1.251.59.237 1.255.065 1.867-.108 5.783-1.637 11.664-3.317 16.714-6.588 5.929-3.84 10.821-9.892 17.757-11.187l2.686 14.202c.042.224.095.467.27.614.313.263.787.059 1.127-.168 3.835-2.547 6.036-7.123 6.442-11.721.406-4.599-.812-9.216-2.677-13.435C133.515 15.007 114.325 3.95 95.277 4c-12.335.033-24.972 4.564-33.203 13.791-3.112 3.489-5.541 7.56-7.386 11.862-2.392 5.577-9.086 25.81-.264 27.564 5.19 1.033 13.076-1.972 18.015-3.441 6.2-1.845 12.236-4.194 18.258-6.545" fill="#7F461F"/><path d="M48.66 126.861c-1.593-1.3-3.976-1.106-5.324.431a65.653 65.653 0 0 0-1.53 1.811c-1.288 1.584-1.002 3.876.64 5.119a3.847 3.847 0 0 0 2.33.778c1.12 0 2.228-.479 2.974-1.394.439-.54.896-1.08 1.357-1.607 1.347-1.538 1.147-3.838-.446-5.138m73.668-78.79a3.949 3.949 0 0 0 2.556.929c1.083 0 2.16-.435 2.928-1.285a24.048 24.048 0 0 0 1.454-1.761c1.254-1.684.86-4.032-.882-5.245-1.743-1.213-4.172-.83-5.426.853a16.75 16.75 0 0 1-.999 1.207c-1.412 1.564-1.247 3.937.369 5.302" fill="#3A230D"/><path d="M154.98 168.872l5.685-18.947a4.022 4.022 0 0 0-3.851-5.177H36.188a4.021 4.021 0 0 0-3.852 5.177l5.685 18.947H18.195c1.35-26.763 16.122-50.773 39.434-64.076 1.742 2.137 3.832 3.838 6.454 5.633a70.755 70.755 0 0 0-11.115 7.169 4.021 4.021 0 0 0 4.976 6.317 62.713 62.713 0 0 1 10.173-6.523l3.723-1.91c.239.16.472.313.716.479l.247.154c7.77 4.486 15.742 6.761 23.695 6.761 7.953 0 15.926-2.275 23.698-6.762l.246-.155a195.118 195.118 0 0 1 5-3.256c4.336-2.758 7.478-4.902 9.927-7.908 23.313 13.304 38.086 37.314 39.435 64.077H154.98zm-9.242 2.82a.085.085 0 0 1-.004.014l-3.976 13.25h-9.12l1.674-6.248a4.02 4.02 0 1 0-7.768-2.082l-2.231 8.33H51.242l-3.967-13.223-.018-.06-5.666-18.884h8.863l2.232 8.33a4.022 4.022 0 0 0 4.924 2.843 4.02 4.02 0 0 0 2.843-4.925l-1.674-6.248h92.63l-5.671 18.903zM53.42 52.684c-.304-4.618-.177-8.939.783-12.152 5.987-20.04 22.193-32.49 42.295-32.49 20.104 0 36.31 12.45 42.296 32.49 1.204 4.03 1.1 9.796.476 15.71-.076.308-.12.628-.12.959 0 .029.005.058.005.086-.665 5.771-1.78 11.591-2.624 15.992-.38 1.978-.707 3.685-.936 5.073-.56 3.405-1.086 6.278-1.615 8.735-1.459 3.795-1.924 8.469-4.866 12.575-1.916 2.39-4.406 3.976-7.99 6.255-1.496.952-3.188 2.028-5.072 3.303-6.494 3.726-13.073 5.615-19.555 5.615-6.481 0-13.059-1.889-19.551-5.613-1.884-1.274-3.576-2.35-5.072-3.303-7.14-4.541-9.944-6.326-12.495-17.22a3.992 3.992 0 0 0-.186-.812c-.588-2.626-1.168-5.754-1.79-9.535-.23-1.389-.557-3.099-.937-5.078-.677-3.533-1.53-7.982-2.184-12.585 7.383-1.03 23.21-3.703 33.874-8.819l2.641 6.335c.27.648.493 1.218.688 1.715.889 2.262 1.728 4.398 4.242 5.246a5.443 5.443 0 0 0 1.773.292c1.406 0 2.89-.506 4.946-1.208.565-.193 1.202-.411 1.921-.648 2.788-.92 8.385-3.695 13.685-7.218a4.02 4.02 0 1 0-4.452-6.696c-4.946 3.287-9.849 5.65-11.753 6.278-.75.247-1.413.474-2 .674-.294.1-.599.205-.892.303-.21-.532-.448-1.14-.735-1.83l-4.368-10.479a4.022 4.022 0 0 0-5.908-1.82c-8.697 5.672-26.536 8.735-34.524 9.87zm-9.454 32.478a5.642 5.642 0 0 1-5.635-5.635v-12.67a5.641 5.641 0 0 1 5.635-5.636h2.262c.676 4.885 1.58 9.607 2.34 13.568.369 1.923.688 3.585.899 4.87.326 1.977.648 3.805.972 5.503h-6.473zm99.564-5.503c.211-1.283.53-2.943.898-4.864.76-3.963 1.666-8.686 2.341-13.573h2.264a5.641 5.641 0 0 1 5.635 5.635v12.67a5.642 5.642 0 0 1-5.635 5.636h-6.475c.325-1.699.647-3.526.972-5.504zm45.448 89.213h-6.127c-.683-14.793-5.127-29.126-12.959-41.678a86.76 86.76 0 0 0-30.616-29.424 49.83 49.83 0 0 0 1.467-4.566h8.29c7.54 0 13.676-6.135 13.676-13.677v-12.67c0-7.542-6.135-13.677-13.677-13.677h-1.427c.35-5.462.157-10.723-1.106-14.95-3.487-11.674-10.103-21.415-19.135-28.17C118.567 3.478 107.894 0 96.5 0 85.106 0 74.433 3.479 65.634 10.06c-9.031 6.755-15.648 16.496-19.136 28.17-1.263 4.228-1.455 9.489-1.106 14.95h-1.425c-7.542 0-13.677 6.136-13.677 13.677v12.67c0 7.542 6.135 13.678 13.677 13.678h8.288c.465 1.697.95 3.208 1.467 4.565a86.757 86.757 0 0 0-30.616 29.425c-7.832 12.553-12.275 26.885-12.959 41.678H4.021a4.021 4.021 0 0 0 0 8.042h36.412l3.966 13.219a4.021 4.021 0 0 0 3.851 2.865h79.133l.018.001.028-.001h17.32a4.021 4.021 0 0 0 3.852-2.865l3.965-13.219h36.413a4.021 4.021 0 0 0 0-8.043z" fill="#3A230D"/><path d="M59.15 168.127c-2.267.528-3.612 2.555-3.004 4.525l.497 1.61c.509 1.65 2.226 2.738 4.103 2.738.364 0 .735-.04 1.103-.127 2.268-.529 3.613-2.555 3.005-4.526l-.497-1.609c-.608-1.97-2.936-3.14-5.206-2.611m74-.254c.368.086.739.127 1.103.127 1.876 0 3.594-1.088 4.103-2.738l.497-1.609c.608-1.97-.736-3.997-3.004-4.525-2.267-.53-4.598.64-5.207 2.61l-.497 1.609c-.608 1.97.736 3.997 3.004 4.526" fill="#3A230D"/><path d="M81.951 28.006l-10.109 6.313c-2.062 1.288-4.827.694-6.145-1.32-1.319-2.015-.71-4.717 1.352-6.005l10.109-6.313c2.062-1.288 4.827-.694 6.145 1.32 1.319 2.015.71 4.717-1.352 6.005" fill="#E8C249"/><path d="M77.5 83c-2.475 0-4.5-2.105-4.5-4.678v-5.644C73 70.105 75.025 68 77.5 68s4.5 2.105 4.5 4.678v5.644C82 80.895 79.975 83 77.5 83m38 0c-2.475 0-4.5-2.105-4.5-4.678v-5.644c0-2.573 2.025-4.678 4.5-4.678s4.5 2.105 4.5 4.678v5.644c0 2.573-2.025 4.678-4.5 4.678M106 94.345C106 100.23 101.299 105 95.5 105S85 100.23 85 94.345c0-5.884 4.701 1.16 10.5 1.16s10.5-7.044 10.5-1.16" fill="#3A230D"/></g></svg>