<svg width="180" height="163" viewBox="0 0 180 163" xmlns="http://www.w3.org/2000/svg"><title>Page 1 Copy 3</title><g transform="translate(1 1)" fill="none" fill-rule="evenodd"><path fill="#FFF" d="M3 160L176 160 176 4 3 4z"/><path fill="#D9E6F4" d="M32 108L49 108 49 93 32 93z"/><path fill="#D9E6F4" d="M32 134L49 134 49 119 32 119z"/><path fill="#D9E6F4" d="M177 25L141 158 177 158z"/><path fill="#115DCC" d="M5 23L174 23 174 5 5 5z"/><path stroke="#000" d="M5 23L174 23 174 5 5 5z"/><g fill="#3A230D"><path d="M116.457 22.73h55.862V5.681h-55.862V22.73zm-110.776 0h105.096V5.681H5.68V22.73zM175.16 0H2.84A2.84 2.84 0 0 0 0 2.841V158.16A2.84 2.84 0 0 0 2.84 161h172.32a2.84 2.84 0 0 0 2.84-2.841v-30.306a2.84 2.84 0 1 0-5.68 0v27.465H5.68V28.412h166.64v88.076a2.84 2.84 0 1 0 5.68 0V2.841A2.84 2.84 0 0 0 175.16 0z" stroke="#3A230D" stroke-width="2"/><path d="M144.483 11.175c-1.67 0-3.03 1.36-3.03 3.03 0 1.672 1.36 3.031 3.03 3.031 1.67 0 3.03-1.36 3.03-3.03 0-1.671-1.36-3.03-3.03-3.03m-15.528 0c-1.67 0-3.03 1.359-3.03 3.03 0 1.67 1.36 3.03 3.03 3.03 1.67 0 3.03-1.36 3.03-3.03 0-1.671-1.36-3.03-3.03-3.03m31.056 0c-1.67 0-3.03 1.359-3.03 3.03 0 1.67 1.36 3.03 3.03 3.03 1.67 0 3.03-1.36 3.03-3.03 0-1.671-1.36-3.03-3.03-3.03M56.32 77.085a2.84 2.84 0 0 0 2.369-2.004l6.534-21.818a2.842 2.842 0 0 0-5.442-1.63L55.096 67.28l-4.517-7.541a2.84 2.84 0 0 0-4.874 0l-4.517 7.541-4.686-15.644a2.84 2.84 0 1 0-5.442 1.63l6.534 21.815a2.841 2.841 0 0 0 5.157.645l5.39-9 5.39 9c.58.966 1.675 1.5 2.79 1.36zm21.832-.002a2.844 2.844 0 0 0 2.789-1.36l5.39-8.999 5.39 9a2.84 2.84 0 0 0 5.158-.645l6.534-21.818a2.842 2.842 0 0 0-5.442-1.631l-4.686 15.648-4.518-7.542a2.84 2.84 0 0 0-4.873 0l-4.517 7.542-4.685-15.645a2.84 2.84 0 1 0-5.442 1.63l6.533 21.816a2.841 2.841 0 0 0 2.369 2.004m61.545-27.362a2.84 2.84 0 0 0-3.536 1.907l-4.687 15.647-4.517-7.542a2.84 2.84 0 0 0-4.873 0l-4.518 7.542-4.685-15.645a2.84 2.84 0 1 0-5.442 1.631l6.533 21.815a2.841 2.841 0 0 0 5.157.645l5.39-9 5.391 9a2.84 2.84 0 0 0 5.158-.645l6.534-21.817a2.84 2.84 0 0 0-1.905-3.538M36.623 105.52h9.468v-9.47h-9.468v9.47zM51.77 93.208a2.84 2.84 0 0 0-2.84-2.84H33.782a2.84 2.84 0 0 0-2.84 2.84v15.153a2.84 2.84 0 0 0 2.84 2.842h15.15a2.84 2.84 0 0 0 2.84-2.842V93.208zm-15.148 38.83h9.468v-9.47h-9.468v9.47zm12.308-15.153H33.782a2.84 2.84 0 0 0-2.84 2.841v15.153a2.84 2.84 0 0 0 2.84 2.841h15.15a2.84 2.84 0 0 0 2.84-2.841v-15.153a2.84 2.84 0 0 0-2.84-2.841zm89.951-18.941h-11.361a2.84 2.84 0 0 0 0 5.682h11.361a2.84 2.84 0 0 0 0-5.682m-22.723 0H60.293a2.84 2.84 0 0 0 0 5.682h55.866a2.84 2.84 0 0 0 0-5.682m22.723 26.517h-11.361a2.84 2.84 0 0 0 0 5.683h11.361a2.84 2.84 0 0 0 0-5.683m-22.723 0H60.293a2.84 2.84 0 0 0 0 5.683h55.866a2.84 2.84 0 0 0 0-5.683"/></g></g></svg>