<svg width="663" height="663" viewBox="0 0 663 663" xmlns="http://www.w3.org/2000/svg"><g transform="matrix(1 0 0 -1 0 663)" fill="none"><path d="M13.561 291.502c-3.483 0-6.912-1.466-9.371-3.933-2.458-2.469-3.936-5.887-3.934-9.372V80.631c0-3.482 1.476-6.96 3.934-9.431 2.459-2.465 5.888-3.924 9.371-3.933H62.91c3.491 0 6.961 1.468 9.43 3.933 2.469 2.471 3.936 5.941 3.934 9.431v197.566c0 3.49-1.465 6.96-3.934 9.43-2.469 2.47-5.939 3.88-9.43 3.875H13.561m213.823-11.916c-61.579-.717-122.763-20.654-122.763-20.654-5.327-1.713-9.261-7.13-9.256-12.727V113.954c.259-8.986 6.066-14.92 13.884-15.678 4.211-.362 10.781-1.267 23.951-3.066.566-.079 5.979-1.539 12.614-4.165 6.635-2.627 15.085-6.329 24.644-10.703 19.122-8.748 42.69-20.293 66.53-31.76 23.84-11.47 47.92-22.857 68.207-31.704C325.484 8.033 340.036 1.512 353.214.505c20.009-1.553 54.175 3.981 89.207 9.546 35.033 5.565 70.694 11.583 80.184 12.034 28.148 1.328 51.325 22.456 66.589 32.339 19.815 12.876 42.641 26.658 61.496 44.605h.051c6.83 6.49 12.004 14.897 11.861 25.976-1.24 9.131-9.424 6.8-11.513 10.588 2.75 2.967 10.917 10.53 11.513 16.255 1.96 17.006-15.442 25.52-29.564 26.668-26.15 1.302-49.916-14.472-63.06-26.958-20.242-19.307-41.988-25.82-71.97-29.272-35.895-4.161-69.53-6.975-101.647 3.181-4.782 1.513-15.767 6.324-25.861 10.59-5.046 2.128-10.03 4.128-14.404 5.724-3.281 1.201-5.372 2.394-9.084 2.894 10.937 1.412 28.734 3.966 45.183 2.026 19.887-2.349 81.555-2.47 107.028-7.116 9.738-1.775 19.35.506 26.555 5.147 7.204 4.644 12.16 11.207 15.56 18.107 6.8 13.81 9.596 21.346-.233 34.886-8.925 12.287-22.649 16.393-37.891 20.713-15.247 4.317-32.458 7.297-47.729 9.718-31.586 5.017-55.173 3.897-78.447 8.33-8.396 1.597-22.987 10.009-43.043 19.496-20.056 9.488-46.103 19.448-80.356 22.622-8.637.797-17.469 1.086-26.265.983h.01" fill="#737F83"/><path d="M310.902 662.741c-69.463 0-117.09-58.167-117.09-123.323 0-65.614 51.962-200.134 215.684-287.31a6.99 6.99 0 0 1 6.558 0c92.432 49.198 149.241 113.838 181.147 172.32.058.117.111.236.164.356l15.765 33.12c.049.118.096.236.138.356 12.92 31.678 18.5 59.908 18.5 81.159 0 65.157-47.63 123.323-117.092 123.323-54.131 0-88.894-37.438-101.901-54.38-13.009 16.942-47.751 54.38-101.873 54.38" fill="#E67874"/></g></svg>