<svg width="1200" height="1042" viewBox="0 0 1200 1042" xmlns="http://www.w3.org/2000/svg" xmlns:xlink="http://www.w3.org/1999/xlink"><defs><path id="a" d="M0 1041.735L0 0 1199.995 0 1199.995 1041.735z"/></defs><g transform="matrix(1 0 0 -1 0 1041.737)" fill="none" fill-rule="evenodd"><mask id="b" fill="#fff"><use xlink:href="#a"/></mask><g mask="url(#b)" fill="#7EB923" fill-rule="nonzero"><g transform="translate(0 -.125)"><path d="M296.53 456.17a9.073 9.073 0 0 0 6.354-3.063l16.154-18.143c3.308-3.748 2.967-9.463-.768-12.786l-64.385-57.265 26.259-29.554 61.476 54.665a9.073 9.073 0 0 0 12.782-.768l16.08-18.068a9.073 9.073 0 0 0-.767-12.783l-61.476-54.665 59.487-66.914a9.073 9.073 0 0 0-.691-12.782L346.672 205.9c-3.743-3.311-9.46-2.969-12.785.762L197.845 359.627c-3.343 3.733-3.028 9.47.708 12.812.016.017.036.034.054.051l91.487 81.379a9.082 9.082 0 0 0 6.431 2.298l.005.003zm124.024 48.614c-.856 0-1.749-.024-2.68-.147-3.309-.463-6.668-1.71-10.333-3.83-3.772-2.18-8.486-5.63-13.857-10.41l-13.398-11.942 39.275-44.097 11.175 9.876c5.416 4.816 9.737 9.483 13.017 14.01 2.836 3.911 4.206 7.84 4.517 12.326.288 4.126-.277 8.007-1.914 12.019-1.651 4.038-4.507 8.42-8.73 13.168-3.251 3.653-6.496 6.046-9.8 7.5-2.349 1.04-4.696 1.555-7.272 1.534v-.007zm2.68 45.092a59.86 59.86 0 0 0 21.358-3.062c9.774-3.251 18.586-9.639 26.488-18.529 11.005-12.371 17.567-26.284 18.759-41.035.84-10.439-.715-20.86-4.366-31.006l102.05-16.307a9.072 9.072 0 0 0 4.597-15.697l-26.415-23.5a9.065 9.065 0 0 0-7.5-2.144l-98.378 16.919-13.09-11.714 48.002-54.051c3.327-3.725 3.016-9.439-.693-12.784l-20.361-18.07a9.072 9.072 0 0 0-12.785.769l-136.044 152.96a9.072 9.072 0 0 0 .764 12.785l39.426 35.066c9.01 8.014 17.052 14.299 24.423 18.986 7.863 5.003 16.771 8.21 26.336 9.644.048 0 .074.074.074.074l.073-.074c2.43.38 4.858.673 7.274.768l.008.002zM570.987 701a9.074 9.074 0 0 0 7.273-2.985l16.154-18.145a9.072 9.072 0 0 0-.768-12.783l-68.517-60.942 25.187-28.4 63.39 56.422a9.074 9.074 0 0 0 12.786-.762l16.074-18.07c3.309-3.745 2.968-9.46-.762-12.783l-63.39-56.426 38.506-43.255 68.519 60.94a9.072 9.072 0 0 0 12.785-.689l16.075-18.067a9.074 9.074 0 0 0-.708-12.813l-.055-.05-95.621-85.055a9.073 9.073 0 0 0-12.811.71c-.018.019-.034.039-.05.058l-135.968 152.96a9.072 9.072 0 0 0 .689 12.785l95.695 85.056a9.087 9.087 0 0 0 5.512 2.294h.005zm132.754 118.055a9.072 9.072 0 0 0 7.273-3.063l16.075-18.067a9.072 9.072 0 0 0-.708-12.812l-.055-.05-68.445-60.863 25.188-28.324 63.312 56.346c3.735 3.343 9.471 3.021 12.812-.71l.05-.057 16.08-18.068c3.308-3.747 2.967-9.462-.768-12.786l-63.39-56.346 38.509-43.255 68.445 60.863c3.735 3.343 9.471 3.022 12.811-.71l.05-.058 16.075-18.068c3.311-3.743 2.969-9.461-.762-12.785l-95.624-84.976a9.072 9.072 0 0 0-12.783.689L601.84 718.919c-3.343 3.735-3.021 9.471.711 12.811l.058.05 95.543 84.978a9.066 9.066 0 0 0 5.59 2.298v-.002zm-36.058 222.781a20.31 20.31 0 0 1-12.633-5.05L6.835 460.377c-8.39-7.437-9.163-20.268-1.725-28.658l.043-.048L382.887 7.005c7.412-8.413 20.243-9.222 28.654-1.811l.055.05 648.139 576.483a20.296 20.296 0 0 1 6.738 13.93l10.185 173.483c-3.393 3.855-6.932 7.628-10.643 11.176-18.096 20.68-44.064 34.408-71.275 39.198-5.05-10.575-12.283-20.282-21.587-28.557-37.403-33.264-94.664-29.898-127.928 7.5-33.263 37.402-29.98 94.664 7.426 127.93 33.25 29.57 82.304 30.18 116.14 3.673 32.42.788 64.974-5.404 94.47-18.68 7.219-3.249 14.222-6.861 21.054-10.717l5.589 96.156c.646 11.18-7.883 20.771-19.063 21.436l-401.163 23.58c-.663.034-1.33.034-1.993 0h-.002z"/><path d="M856.965 852.668c.813-11.85 5.129-23.296 13.409-32.13 1.567-1.984 3.311-3.762 5.101-5.403.832.83 1.626 1.701 2.479 2.515a148.943 148.943 0 0 0 4.581 4.176l.048.049c11 9.617 23.373 17.584 36.886 23.381 82.433 35.324 183.347-16.965 224.288-123.057 40.887-106.16 2.38-219.781-80.125-255.165-28.56-12.24-59.366-13.887-89.096-6.498a15140.126 15140.126 0 0 0-33.898-30.657c44.52-17.548 93.176-18.927 138.636.553 106.152 45.528 148.886 183.155 101.547 306.076-47.42 122.868-170.951 190.863-277.046 145.396-.016-.018-.031-.032-.048-.049-17.318-7.426-32.953-17.327-46.774-29.199l.012.012"/></g></g></g></svg>