<svg width="901" height="1200" viewBox="0 0 901 1200" xmlns="http://www.w3.org/2000/svg"><g transform="matrix(1 0 0 -1 0 1200)" fill="#F1BE2C"><path d="M125.111 790.661C56.781 790.661 0 733.875 0 665.551V125.11C0 56.784 56.784 0 125.111 0H775.38c68.325 0 125.035 56.85 125.035 125.11v540.441c0 68.258-56.705 125.11-125.035 125.11H125.111zm0-115.071H775.38c6.528 0 9.964-3.445 9.964-10.039V125.11c0-6.605-3.43-10.04-9.964-10.04H125.111c-6.53 0-10.04 3.501-10.04 10.04v540.441c0 6.528 3.511 10.039 10.04 10.039z"/><path d="M450.245 1200C289.179 1200 157.7 1068.523 157.7 907.454V748.783c-.45-31.777 24.948-57.9 56.72-58.35 31.776-.448 57.901 24.947 58.35 56.723.007.542.007 1.084 0 1.627v158.67c0 99.326 78.153 177.476 177.475 177.476 99.325 0 177.401-78.15 177.401-177.475V748.783c-.45-31.777 24.948-57.9 56.72-58.35 31.777-.448 57.902 24.947 58.35 56.723.008.542.008 1.084 0 1.627v158.67c0 161.07-131.399 292.547-292.471 292.547m90.445-741.9c0-49.963-40.504-90.468-90.469-90.468-49.962 0-90.466 40.505-90.466 90.468 0 49.962 40.504 90.467 90.466 90.467 49.965 0 90.469-40.505 90.469-90.467"/><path d="M449.346 471.52c-31.745-.496-57.092-26.612-56.636-58.36V255.087c-.449-31.774 24.948-57.898 56.721-58.348 31.776-.449 57.9 24.946 58.35 56.722.007.543.007 1.084 0 1.626V413.16c.457 31.776-24.932 57.905-56.709 58.36-.576.009-1.15.009-1.726 0"/></g></svg>